# xmcd
#
# Track frame offsets: 
#        150
#        30737
#        58244
#        88471
#        119544
#        150296
#        175770
#        208597
#        240093
#        273235
#        301953
#
# Disc length: 4377 seconds
#
# Revision: 1
# Processed by: cddbd v1.5.1PL2 Copyright (c) Steve Scherf et al.
# Submitted via: ExactAudioCopy v0.95b4
#
DISCID=8c11170b
DTITLE=Various Artist - New Motion Of Drum and Bass Chapter 5
DYEAR=2005
DGENRE=Drum and Bass
TTITLE0=D. Hut - Prozerpine
TTITLE1=Protech and Iggy K - Indigo
TTITLE2=Bes - Tars Tarkas
TTITLE3=Ruffen and Dissident - Panopticum
TTITLE4=Cooh and Paralyzah - Clone Of The Rat
TTITLE5=Nothing - Warm Pole
TTITLE6=Dissident - Graal (Implex Remix)
TTITLE7=Cobalt  - S.W.A.T.
TTITLE8=Bios - Labyrinth
TTITLE9=Mikka Sikorsky - Polar City
TTITLE10=Dissident - Operated Dream
EXTD=
EXTT0=
EXTT1=
EXTT2=
EXTT3=
EXTT4=
EXTT5=
EXTT6=
EXTT7=
EXTT8=
EXTT9=
EXTT10=
PLAYORDER=
